<?xml version="1.0" standalone="no"?>
<!DOCTYPE svg PUBLIC "-//W3C//DTD SVG 20010904//EN"
 "http://www.w3.org/TR/2001/REC-SVG-20010904/DTD/svg10.dtd">
<svg version="1.0" xmlns="http://www.w3.org/2000/svg"
 width="351.000000pt" height="269.000000pt" viewBox="0 0 351.000000 269.000000"
 preserveAspectRatio="xMidYMid meet">
<metadata>
Created by potrace 1.16, written by Peter Selinger 2001-2019
</metadata>
<g transform="translate(0.000000,269.000000) scale(0.100000,-0.100000)"
fill="#000000" stroke="none">
<path d="M1695 2321 c-16 -10 -38 -27 -47 -37 -23 -26 -36 -92 -26 -130 9 -36
66 -91 103 -100 l25 -6 0 -223 0 -222 -42 -7 c-24 -4 -60 -18 -82 -32 l-38
-26 -26 24 c-15 13 -94 90 -176 171 l-149 148 16 35 c34 69 12 149 -53 192
-85 57 -205 -6 -218 -114 -4 -36 0 -51 22 -85 44 -65 119 -86 191 -52 l35 17
141 -140 c77 -76 154 -156 171 -177 27 -34 29 -39 15 -55 -21 -23 -47 -89 -47
-118 l0 -24 -165 0 c-146 0 -165 2 -165 16 0 34 -43 87 -88 106 -56 25 -100
18 -147 -23 -68 -60 -67 -158 0 -218 30 -26 44 -31 86 -31 29 0 63 7 78 16 31
19 71 73 71 97 0 15 17 17 164 17 l164 0 6 -44 c4 -25 18 -61 32 -81 l24 -36
-35 -42 c-19 -23 -95 -102 -170 -176 l-134 -134 -35 17 c-132 62 -272 -78
-193 -195 49 -73 119 -96 186 -61 71 35 100 123 66 195 l-17 36 138 139 c77
76 156 153 176 171 l38 33 29 -22 c17 -11 53 -26 81 -33 l50 -12 0 -222 0
-221 -27 -7 c-101 -23 -140 -155 -69 -233 64 -72 155 -68 219 8 35 41 42 86
22 137 -17 42 -76 93 -108 93 -15 0 -17 20 -17 224 l0 223 43 7 c23 4 59 18
80 32 l38 25 27 -20 c15 -11 94 -88 176 -170 l149 -150 -17 -34 c-61 -129 69
-264 191 -199 101 54 108 186 14 249 -41 27 -98 30 -147 7 l-35 -17 -147 150
c-81 82 -157 160 -170 175 l-24 26 26 38 c14 22 28 58 32 82 l7 42 118 0 c107
0 119 -2 119 -17 0 -10 9 -31 19 -47 60 -91 194 -88 251 6 50 83 -8 196 -109
213 -65 11 -142 -42 -156 -107 l-7 -28 -116 0 -117 0 -13 53 c-7 28 -21 65
-33 80 -25 35 -37 18 163 221 l158 160 35 -17 c50 -24 105 -22 146 6 128 85
55 282 -98 264 -96 -11 -151 -120 -107 -214 l17 -34 -171 -170 c-93 -93 -175
-169 -180 -169 -6 0 -14 5 -18 11 -9 15 -91 49 -120 49 l-24 0 0 224 0 224 29
7 c37 8 87 57 101 100 38 114 -104 229 -205 166z"/>
</g>
</svg>
